<svg xmlns="http://www.w3.org/2000/svg" xmlns:xlink="http://www.w3.org/1999/xlink" viewBox="0 0 220 135.551" height="512.319" width="831.496"><ellipse cx="108.585" cy="67.775" rx="99.046" ry="67.776" fill="#140037"/><ellipse ry="59.983" rx="85.409" cy="67.775" cx="108.585" fill="#140042"/><ellipse cx="48.438" cy="61.908" rx="62.81" ry="45.567" transform="matrix(.99994 .010937 -.010249 .999947 60.784 5.341)" fill="#140052"/><path d="M33.784 14.878c18.743-1.206 34.693-8.033 48.765 2.204 8.652 6.294 7.56 14.662 17.126 8.826 34.413-21 42.05-5.517 63.537-1.917 12.742 2.135 20.435 7.295 18.245 9.62-1.02 1.084-17.357 4.684-3.857 6.612s38.02-1.653 34.44 3.03-41.27 2.05-46.56.55c-2.83-.8-17.834-6.55-8.706-11.853-26.895-7.238-22.638 5.307-50.85 5.15-18.184.276-20.618-10.654-34.945-13.4-7.35-1.413-20.94-3.03-35.816-.55-25.8 4.298-7.28-7.885-1.378-8.265zM9.258 38.1c28.5.582 61.13 6.036 74.603 12.312-13.838 11.732 28.824 11.5 131.754 17.168 13.58.75-5.442 15.004-42.43 6.337-38.314-8.978-57.912-5.167-82.04.137-26.68 5.865-43.945-7.788-36.428-12.26C75.875 49.198 33.025 46.092 9.8 41.12c-4.398-.942-7.127-3.165-.55-3.03zM3.403 87.407c55.378-8 34.88.703 57.473-2.2 39.323-5.035 44.13 14.215 58.133 9.643 24.184-7.897 35.104 6.697 53.006 7.976 7.714.55 42.153-5.5 39.95-.276s-11.847 6.337-32.5 10.194-17.366-6.36-35.816-7.163c-45.538-1.982-63.8 4.96-71.714 2.36-13.256-4.355-14.503-9.442-30.5-13.657-27.593-7.27-25.195 7.813-30.857 8-5.515.172-15.98-9.643-7.163-14.878z" fill="#499fea" fill-opacity=".688"/><g fill="#fff"><circle cx="26.302" cy="64.703" r="1.753"/><ellipse cx="52.845" cy="29.636" rx=".633" ry=".584"/><circle cx="108.903" cy="13.272" r="2.143"/><circle cx="45.199" cy="109.315" r="1.169"/><circle cx="147.672" cy="112.822" r="1.559"/><ellipse cx="193.453" cy="83.6" rx="2.533" ry="2.338"/><circle cx="137.736" cy="38.598" r="1.753"/><ellipse cx="186.623" cy="52.429" rx=".767" ry=".779"/><ellipse cx="174.166" cy="90.029" rx="1.169" ry=".974"/><ellipse cx="163.549" cy="76.781" rx="3.02" ry="2.922"/><circle cx="17.535" cy="77.755" r="2.727"/><ellipse cx="48.121" cy="73.859" rx="1.753" ry="1.559"/><circle cx="52.602" cy="54.378" r="1.169"/><ellipse cx="72.083" cy="36.747" rx="2.338" ry="2.435"/><ellipse cx="67.679" cy="119.97" rx="1.37" ry="1.392"/><ellipse cx="91.297" cy="111.719" rx=".895" ry=".827"/><ellipse cx="92.605" cy="128.319" rx="1.791" ry="1.722"/><ellipse cx="114.99" cy="118.196" rx="2.618" ry="2.615"/><ellipse cx="127.733" cy="125.633" rx="1.24" ry="1.378"/><ellipse cx="121.327" cy="78.245" rx="1.446" ry="1.378"/><ellipse cx="149.085" cy="76.041" rx="2.48" ry="2.342"/><ellipse cx="100.747" cy="51.619" rx="1.581" ry="1.53"/><circle cx="165.099" cy="55.343" r=".448"/><circle cx="175.052" cy="52.347" r=".827"/><ellipse cx="131.142" cy="53.862" rx=".93" ry=".964"/><ellipse cx="130.901" cy="9.574" rx=".689" ry=".758"/><ellipse cx="157.54" cy="16.186" rx="2.394" ry="2.273"/><ellipse cx="74.275" cy="9.375" rx="1.023" ry=".974"/><ellipse cx="38.21" cy="37.136" rx=".998" ry=".877"/><ellipse cx="57.423" cy="107.075" rx=".536" ry=".584"/></g><g fill-rule="evenodd"><path d="M45.63 95.36s12.187 5.347 15.984 8.004c5.4 2.826 10.762 8.433 36.217 3.137-36.217-3.137-28.153-5.86-52.2-11.14z" fill-opacity=".1"/><g transform="matrix(.180946 .031906 -.031906 .180946 76.700064 58.864225)"><path d="M126.352 0c1.953 26.555 127.78 104.736 128.514 106.93.326.975-12.73 31.793-39.165 92.454l11 4.258c40.55-64.245 59.782-99.8 57.7-106.635-2.982-9.8-35.524-42.042-97.627-96.723z" fill="#b28b67"/><path d="M218.595 185.684l17.958 6.512c37.867-42.56 52.7-77.676 50.003-95.568-1.804-11.928-34.234-44.115-97.3-96.562h-64.202c2.2 61.497 118.816 107.098 120.376 109.72s-13.792 28.287-26.845 75.9z" fill="#2f3676"/><use xlink:href="#A" transform="rotate(20 -374.33 704.3)" fill="#e4e4e4"/><path d="M42.674 247.37L184.878 0h-44.06L84.767 134.046 29.676 247.37z" fill="#997659"/><use xlink:href="#A" x="25.998" y="214.729" fill="#e4e4e4"/><path d="M34.65 223.83l28.88 5.395C85.863 196.52 179.318 62.425 189.564 0h-64.296C91.05 45.127 55.937 190.584 34.65 223.83z" fill="#334686"/></g><path d="M104.8 75.554l.763-1.147c3.196 2.63 11.814 11.513 11.862 11.975 0 0-5.93-4.306-7.285-5.506-4.876-4.318-5.34-5.322-5.34-5.322z" fill-opacity=".1"/><g transform="matrix(.167853 .074733 -.074733 .167853 103.90509 23.552034)"><path d="M67.444 70.313c-5-5.807-8.37-12.924-7.805-20.898C61.265 26.44 93.535 31.493 99.812 43.1s5.53 41.012-2.58 43.085c-3.235.827-10.127-1.198-17.142-5.4l4.403 30.873h-26z" fill="#b28b67"/><path d="M102.266 48.296c-.258-1.503-.887-3.172-1.395-4.594-.655-1.833-1.645-3.486-2.736-5.044-2.053-2.933-4.515-5.58-7.234-7.78-4.966-4.015-11.288-6.33-17.505-5.58-3.14.38-6.186 1.566-8.78 3.542-2.343 1.785-4.597 4.412-7.63 4.6-3.3.205-6.328-2.683-8.975-4.467-2.985-2-6.16-3.476-9.65-4.046-5.845-.954-11.336 1.003-15.364 5.757C18.7 35.742 15.594 43.16 18.41 49.86c.523 1.246 1.196 2.296 2.163 3.167.886.798 2.24 1.647 2.598 2.923.382 1.356-.758 3.105-1.2 4.328-.633 1.753-1.153 3.592-.968 5.497.304 3.128 2.287 6.115 4.382 8.17 2.13 2.092 4.755 3.292 7.557 3.845 1.87.37 3.783.573 5.685.434.944-.07 1.777-.33 2.692-.535.9-.2 1.386.033 2.14.517 3.505 2.246 7.274 3.115 11.322 2.78 3.416-.282 7.353-1.103 10.14-3.422 3.095-2.576 3.033-6.13 2.305-9.925.772.38 2.906.614 1.63-.897-.505-.598-1.46-.842-2.108-1.194-.755-.4-1.52-.94-2.108-1.608-2.367-2.7.024-8.2 3-9.096 4.42-1.345 5.4 4.85 8.565 6.454 1.814.92 3.712-.338 5.07-1.624 1.82-1.723 3.062-4.005 4.133-6.328L88 47.592c.42-.9 1.874-3.4 1.144-4.406 3.166-.626 6.692.678 9.42 2.388 1.127.707 1.986 1.486 2.587 2.734.13.267.4 1.062.76 1.095.655.06.4-.733.346-1.1" fill="#191847"/></g><g transform="matrix(.561815 -.408183 .408183 .561815 5.520558 21.123819)"><path d="M110.647 139.745l9.024 6.84c2.468.7 4.524 1.573 6.17 2.593.387.363.85 1.093-.778.94s-3.346-.24-3.58.308.74 1.228.273 1.966c-.312.492-1.72-.78-4.23-3.817l-8.987-3.893z" fill="#b28b67"/><path d="M93.586 114.632l2.485-.38c9.056 8.063 12.567 23.312 23.696 31.552l-2.77 3.298c-19.508-2.75-24.03-21.354-23.4-34.47z" fill="#005aba"/></g><path d="M98.044 64.904l14.948 2.906c.683.133.745-.874.743-1.388-.03-5.937-3.28-12.963-1.698-21.1l-4.18-1.5c-4.676 5.014-7.275 11.802-9.812 21.093z" fill="#dde3e9"/><path d="M101.382 48.375c-.6-.3-1.006-.815-1.244-1.543-1.026-3.136-.154-4.583 1.63-4.768s3.08 1.162 5.764 1.684c.146.03.278.063.396.105l1.335.34c1.334 13.813.708 22.735-1.877 26.764-17.897-.1-6.25-11.433-6.003-22.582z" fill="#005aee"/><path d="M100.112 55.27c-1.33 11.427.042 13.185.605 14.738 0 0-1.78-.475-2.794-2.238-1.54-2.678 1.17-9.692 2.2-12.5z" fill-opacity=".1"/></g><path d="M98.255 41.656c-1.734-2.393-2.36-6.5.132-10.662 2.653-4.443 8.356-5.52 11.692-5.7s11.363 1.286 14.753 6.68c2.882 4.588-.857 12.9-4.598 13.954-4.2 1.2-8.436 1.074-12.514.195-3.4-.735-5.957.38-9.465-4.46z" fill="#94ffff" fill-opacity=".502"/><path d="M117.303 27.732c-3.004.927.407 2.2.407 2.2s.233-1.32 2.86-.516c0 0-1.96-1.63-3.267-1.684zm3.97 16.325s5.815-6.986 2.437-11.616c-1.993-3.763-5.62-2.017-4.353-1.205 5.58 3.575 1.916 12.82 1.916 12.82z" fill-opacity=".325" fill="#fff"/><g fill-rule="evenodd"><g transform="matrix(.62627 .300058 -.300058 .62627 60.701458 5.041421)"><path d="M69.544 48.944l5.747 1.14L66 67.124c-.942 1.447-.06 4.1.267 5.497-2.04.47-1.238-2.585-3.818-1.95-2.356.58-4.352 2.074-6.55.055-.27-.248-.47-1.023.452-1.42 2.293-.988 5.68-2.84 6.23-3.558.75-.98 3.066-6.582 6.954-16.805z" fill="#b28b67"/><path d="M79.8 30.963c9.566 2.035-2.263 20.743-8.298 29.224-1.457 2.134-2.798 3.907-4.024 5.32l-4.616-.897c2.283-14.063 7.93-25.28 16.938-33.646z" fill="#005aee"/></g><path d="M111.797 55.06c7.414 3.1 10.644 3.657 15.688 3.888 0 0-2.772.848-6.194.28-3.87-.642-7.283-2.542-9.494-4.17zm42.07-19.913c.128-.567.44-3.48-1.518-4.146-4.666-1.587-14.28-.995-14.28-.995 7.483-2.68 16.123-1.32 26.766 1.542-2.5.858-15.332 3.836 16.023 13.9 0 0-16.6.206-23.113-5.165-4.64-2.284-3.88-5.127-3.88-5.127zM60.224 56.8c-1.76 2.46-2.308 2.83-3.827 3.937C44.485 66.6 64.945 76.7 80.803 75.455c-8.6-1.947-26.32-3.618-20.58-18.664zM160.35 71.103c32.838 3.667 33.96 3.944 55.594 2.153-15.996 6.864-39.423 2.104-55.594-2.153zm-5.154 36.935c16.154 3.9 22.703 2.654 44.34.863-2.557.4-25.847 5.887-30.905 4.55-5.892-.5-9.737-3.918-13.434-5.414z" fill-opacity=".1"/></g><defs><path id="A" d="M2.9 27.516c-1.212 3.235-1.818 5.656-1.818 7.262 0 1.953.325 4.804.976 8.55h61.096c1.588-5.25.67-8.082-2.75-8.5l-8.525-1.134-28.397-12.66c-.546-.244-1.187.002-1.43.548l-.012.028-1.825 4.428c-3.167 1.477-5.74 2.216-7.72 2.216-1.6 0-3.83-.65-6.664-1.95h0c-1.088-.5-2.374-.02-2.872 1.067l-.06.143z"/></defs></svg>